<?xml version="1.0" standalone="no"?><!DOCTYPE svg PUBLIC "-//W3C//DTD SVG 1.1//EN" "http://www.w3.org/Graphics/SVG/1.1/DTD/svg11.dtd"><svg t="1584580387379" class="icon" viewBox="0 0 1024 1024" version="1.1" xmlns="http://www.w3.org/2000/svg" p-id="2976" xmlns:xlink="http://www.w3.org/1999/xlink" width="200" height="200"><defs><style type="text/css"></style></defs><path d="M954.253333 262.94A106.24 106.24 0 0 0 981.333333 192c0-58.813333-47.853333-106.666667-106.666666-106.666667s-106.666667 47.853333-106.666667 106.666667a106.24 106.24 0 0 0 27.08 70.94A53.333333 53.333333 0 0 0 768 309.333333v81.02a280.526667 280.526667 0 0 0-42.666667-51.133333V277.333333a21.333333 21.333333 0 0 0-42.666666 0v28.353334a304.773333 304.773333 0 0 0-54.96-28.106667A310.533333 310.533333 0 0 0 597.333333 267.48V192a21.333333 21.333333 0 0 0-42.666666 0v66.8a326.48 326.48 0 0 0-85.333334 0V192a21.333333 21.333333 0 0 0-42.666666 0v75.48q-14.713333 4.073333-29 9.566667a305.066667 305.066667 0 0 0-56.3 28.666666V277.333333a21.333333 21.333333 0 0 0-42.666667 0v61.886667a279.946667 279.946667 0 0 0-42.666667 51.126667V309.333333a53.333333 53.333333 0 0 0-27.08-46.393333A106.24 106.24 0 0 0 256 192c0-58.813333-47.853333-106.666667-106.666667-106.666667S42.666667 133.186667 42.666667 192a106.24 106.24 0 0 0 27.08 70.94A53.333333 53.333333 0 0 0 42.666667 309.333333v565.333334a21.333333 21.333333 0 0 0 21.333333 21.333333h170.666667a21.333333 21.333333 0 0 0 21.333333-21.333333v-21.333334h512v21.333334a21.333333 21.333333 0 0 0 21.333333 21.333333h170.666667a21.333333 21.333333 0 0 0 21.333333-21.333333V309.333333a53.333333 53.333333 0 0 0-27.08-46.393333zM298.666667 768h-42.666667V533.333333c0-47.02 14.893333-91.753333 42.666667-129.866666z m128-298.666667h-21.333334a21.333333 21.333333 0 0 0-21.333333 21.333334v85.333333a21.333333 21.333333 0 0 0 21.333333 21.333333h21.333334v170.666667H341.333333V358.46a259.073333 259.073333 0 0 1 71.646667-41.593333q6.766667-2.6 13.666667-4.826667z m128 298.666667H469.333333V597.333333h85.333334z m0-298.666667H469.333333V301.913333a281.406667 281.406667 0 0 1 85.333334 0z m128 341.333334h-42.666667v-42.666667h-42.666667V597.333333h21.333334a21.333333 21.333333 0 0 0 21.333333-21.333333V490.666667a21.333333 21.333333 0 0 0-21.333333-21.333334h-21.333334V312.073333a262.06 262.06 0 0 1 85.333334 46.5z m85.333333-42.666667h-42.666667V403.746667c26.946667 37.16 42.666667 81.72 42.666667 129.586666z" fill="#5C5C66" p-id="2977"></path></svg>