<?xml version="1.0" standalone="no"?><!DOCTYPE svg PUBLIC "-//W3C//DTD SVG 1.1//EN" "http://www.w3.org/Graphics/SVG/1.1/DTD/svg11.dtd"><svg t="1584580407072" class="icon" viewBox="0 0 1024 1024" version="1.1" xmlns="http://www.w3.org/2000/svg" p-id="3847" xmlns:xlink="http://www.w3.org/1999/xlink" width="200" height="200"><defs><style type="text/css"></style></defs><path d="M832.285 66.152H161.683c-35.29 0-64 28.71-64 64V896.294c0 35.29 28.71 64 64 64h670.603c35.29 0 64-28.71 64-64V130.152c-0.001-35.29-28.711-64-64.001-64zM469.486 837.38c0-23.48 19.034-42.514 42.514-42.514s42.514 19.034 42.514 42.514S535.48 879.895 512 879.895s-42.514-19.035-42.514-42.515zM161.683 720.889v-590.68a0.446 0.446 0 0 1 0.058-0.057h670.545v590.737H161.683z" fill="" p-id="3848"></path></svg>